[Header]
FileType HTR
DataType HTRS
FileVersion 1
NumSegments 81
NumFrames 2
DataFrameRate 30
EulerRotationOrder ZYX
CalibrationUnits mm
RotationUnits Degrees
GlobalAxisofGravity Y
BoneLengthAxis Y
ScaleFactor 1.0
[SegmentNames&Hierarchy]
Hips	GLOBAL
LeftUpLeg	Hips
LeftLeg	LeftUpLeg
LeftFoot	LeftLeg
LeftToeBase	LeftFoot
LeftToeEnd	LeftToeBase
LeftLegRoll	LeftLeg
LeftUpLegRoll	LeftUpLeg
Spine	Hips
Spine1	Spine
Spine2	Spine1
LeftShoulder	Spine2
LeftArm	LeftShoulder
LeftForeArm	LeftArm
LeftForeArmRoll	LeftForeArm
LeftHand	LeftForeArm
LeftHandThumb1	LeftHand
LeftHandThumb2	LeftHandThumb1
LeftHandThumb3	LeftHandThumb2
LeftHandThumb4	LeftHandThumb3
LeftHandIndex1	LeftHand
LeftHandIndex2	LeftHandIndex1
LeftHandIndex3	LeftHandIndex2
LeftHandIndex4	LeftHandIndex3
LeftHandMiddle1	LeftHand
LeftHandMiddle2	LeftHandMiddle1
LeftHandMiddle3	LeftHandMiddle2
LeftHandMiddle4	LeftHandMiddle3
LeftHandRing1	LeftHand
LeftHandRing2	LeftHandRing1
LeftHandRing3	LeftHandRing2
LeftHandRing4	LeftHandRing3
LeftHandPinky1	LeftHand
LeftHandPinky2	LeftHandPinky1
LeftHandPinky3	LeftHandPinky2
LeftHandPinky4	LeftHandPinky3
LH_WP	LeftHand
LeftArmRoll	LeftArm
RightShoulder	Spine2
RightArm	RightShoulder
RightForeArm	RightArm
RightHand	RightForeArm
RightHandThumb1	RightHand
RightHandThumb2	RightHandThumb1
RightHandThumb3	RightHandThumb2
RightHandThumb4	RightHandThumb3
RightHandIndex1	RightHand
RightHandIndex2	RightHandIndex1
RightHandIndex3	RightHandIndex2
RightHandIndex4	RightHandIndex3
RightHandMiddle1	RightHand
RightHandMiddle2	RightHandMiddle1
RightHandMiddle3	RightHandMiddle2
RightHandMiddle4	RightHandMiddle3
RightHandRing1	RightHand
RightHandRing2	RightHandRing1
RightHandRing3	RightHandRing2
RightHandRing4	RightHandRing3
RightHandPinky1	RightHand
RightHandPinky2	RightHandPinky1
RightHandPinky3	RightHandPinky2
RightHandPinky4	RightHandPinky3
RH_WP	RightHand
RightForeArmRoll	RightForeArm
RightArmRoll	RightArm
Neck	Spine2
Neck1	Neck
Head	Neck1
Jaw	Head
L_Eye	Head
R_Eye_Socket	Head
L_Eye_Socket	Head
R_Eye	Head
BK_WEP1	Spine2
RightUpLeg	Hips
RightLeg	RightUpLeg
RightFoot	RightLeg
RightToeBase	RightFoot
RightToeEnd	RightToeBase
RightLegRoll	RightLeg
RightUpLegRoll	RightUpLeg
[BasePosition]
Hips	0	0	0	-90	-0	90	1
LeftUpLeg	0	0	0	0.1245552539	2.943081661	177.8888274	1
LeftLeg	0	0	0	-1.553056268e-018	-0.4645708947	-3.190265207	1
LeftFoot	0	0	0	-3.427050049	1.138743235	66.87228657	1
LeftToeBase	0	0	0	-0.1150285401	1.405135968	23.664964	1
LeftToeEnd	0	0	0	0	86.14893154	4.67902715	1
LeftLegRoll	0	0	0	0	-0.0003937979005	-0.0001763048027	1
LeftUpLegRoll	0	0	0	-7.231744079e-028	1.685187608e-005	2.666244888e-005	1
Spine	0	0	0	0	0	-3.518269458	1
Spine1	0	0	0	0	-0	7.885175398	1
Spine2	0	0	0	0	0	-0.09285174208	1
LeftShoulder	0	0	0	160.7860865	59.06322903	63.61338722	1
LeftArm	0	0	0	2.904619295	-26.91541272	-17.55355673	1
LeftForeArm	0	0	0	-90.22254753	-4.753527924	8.383736267	1
LeftForeArmRoll	0	0	0	0	0	0	1
LeftHand	0	0	0	90	-0	0	1
LeftHandThumb1	0	0	0	108.0365432	-19.14265923	-11.8633769	1
LeftHandThumb2	0	0	0	-15.63070336	0.2480216413	-4.679087203	1
LeftHandThumb3	0	0	0	-0.5621291509	1.199440794	-4.464397336	1
LeftHandThumb4	0	0	0	0	0	0	1
LeftHandIndex1	0	0	0	-0.1287480184	2.273223042	-5.916767355	1
LeftHandIndex2	0	0	0	0	0	0	1
LeftHandIndex3	0	0	0	0	0	0	1
LeftHandIndex4	0	0	0	0.06487671692	1.045318787	6.79153565	1
LeftHandMiddle1	0	0	0	-0.1873173809	2.298574433	-7.334490242	1
LeftHandMiddle2	0	0	0	0	0	0	1
LeftHandMiddle3	0	0	0	0	0	0	1
LeftHandMiddle4	0	0	0	0.1011317606	1.031425995	10.25668623	1
LeftHandRing1	0	0	0	-0.2038904391	2.187828672	-7.999827968	1
LeftHandRing2	0	0	0	0	0	0	1
LeftHandRing3	0	0	0	0	0	0	1
LeftHandRing4	0	0	0	0.1270826821	1.220105684	11.26838389	1
LeftHandPinky1	0	0	0	-0.1150589234	1.798482907	-6.335472682	1
LeftHandPinky2	0	0	0	0	0	0	1
LeftHandPinky3	0	0	0	0	0	0	1
LeftHandPinky4	0	0	0	0.09523892401	1.784551098	6.714729621	1
LH_WP	0	0	0	4.792186366e-012	2.776477095	-2.674328027	1
LeftArmRoll	0	0	0	0	2.176196996e-005	0	1
RightShoulder	0	0	0	160.7860865	59.06322903	-116.3866128	1
RightArm	0	0	0	2.904619295	-26.91541272	-17.55355673	1
RightForeArm	0	0	0	-90.22254753	-4.753527924	8.383736267	1
RightHand	0	0	0	90	-0	0	1
RightHandThumb1	0	0	0	108.0365432	-19.14265923	-11.8633769	1
RightHandThumb2	0	0	0	-15.63070336	0.2480216413	-4.679087203	1
RightHandThumb3	0	0	0	-0.5621291509	1.199440794	-4.464397336	1
RightHandThumb4	0	0	0	1.20741827e-006	-0	0	1
RightHandIndex1	0	0	0	-0.1287480183	2.273223042	-5.916767355	1
RightHandIndex2	0	0	0	0	0	0	1
RightHandIndex3	0	0	0	0	0	0	1
RightHandIndex4	0	0	0	0.06487671641	1.045318787	6.79153565	1
RightHandMiddle1	0	0	0	-0.187317381	2.298574433	-7.334490242	1
RightHandMiddle2	0	0	0	0	0	0	1
RightHandMiddle3	0	0	0	0	0	0	1
RightHandMiddle4	0	0	0	0.1011317605	1.031425995	10.25668623	1
RightHandRing1	0	0	0	-0.2038904391	2.187828672	-7.999827968	1
RightHandRing2	0	0	0	0	0	0	1
RightHandRing3	0	0	0	0	0	0	1
RightHandRing4	0	0	0	0.1270826818	1.220105684	11.26838389	1
RightHandPinky1	0	0	0	-0.1150589234	1.798482907	-6.335472682	1
RightHandPinky2	0	0	0	0	0	0	1
RightHandPinky3	0	0	0	0	0	0	1
RightHandPinky4	0	0	0	0.09523892401	1.784551098	6.714729621	1
RH_WP	0	0	0	4.903613047e-012	2.776477095	-2.674328027	1
RightForeArmRoll	0	0	0	0	0	0	1
RightArmRoll	0	0	0	0	2.17619649e-005	0	1
Neck	0	0	0	-0.5911792768	-0.1801087749	-21.21735117	1
Neck1	0	0	0	0.6101271651	0.09836090716	7.78649821	1
Head	0	0	0	0	-0	9.996624533	1
Jaw	0	0	0	-0.06946325017	0.08775954594	-129.2006421	1
L_Eye	0	0	0	90.83837297	89.99999895	0	1
R_Eye_Socket	0	0	0	90.83837297	89.99999895	0	1
L_Eye_Socket	0	0	0	90.83837262	89.99999895	0	1
R_Eye	0	0	0	90.83837262	89.99999895	0	1
BK_WEP1	0	0	0	94.2740542	90	0	1
RightUpLeg	0	0	0	0.1245552539	2.943081661	-2.111172621	1
RightLeg	0	0	0	1.770668338e-011	-0.4645708947	-3.190265207	1
RightFoot	0	0	0	-3.427050049	1.138743235	66.87228657	1
RightToeBase	0	0	0	-0.1150285401	1.405135968	23.664964	1
RightToeEnd	0	0	0	-4.55797616e-013	86.14893154	4.67902715	1
RightLegRoll	0	0	0	0.0001763058084	-5.425123434e-010	1.211761319e-009	1
RightUpLegRoll	0	0	0	2.663171688e-005	1.239300521e-011	-7.832936944e-012	1
[Hips]
4	-37.93658829	931.8830566	947.09729	11.53880692	5.700063705	-4.804458618	1.0
5	-38.50969315	921.8843994	1154.085571	7.718500614	6.321365356	-3.917937279	1.0
[LeftUpLeg]
4	-47.72187042	-9.041700363	-88.56559753	-10.96191978	4.333106041	-21.41611862	1.0
5	-47.72187042	-9.041736603	-88.56562805	-11.37644577	3.084406376	-11.33812714	1.0
[LeftLeg]
4	428.657196	9.224857422e-006	8.762436664e-006	7.445325851	12.83055019	-49.43905258	1.0
5	428.6571655	-4.380453174e-005	-9.452708764e-005	-1.743954301	12.43733501	-82.45792389	1.0
[LeftFoot]
4	444.421936	-0.003580920398	0.7352782488	4.936948299	-1.067647815	-27.64389992	1.0
5	444.4226685	-0.0238894131	-0.6332653761	-1.943197727	2.31872654	-25.33488846	1.0
[LeftToeBase]
4	155.2783813	9.316895739e-005	6.297896562e-006	0.0001343840268	1.049765342e-005	5.230437091e-005	1.0
5	155.2785339	0.0001402600465	6.297896562e-006	0.0001343840268	1.049765342e-005	7.055469905e-005	1.0
[LeftToeEnd]
4	87.1754837	4.440892099e-015	-1.243449788e-013	0	0	0	1.0
5	87.1754837	4.440892099e-015	-1.243449788e-013	0	0	0	1.0
[LeftLegRoll]
4	198.5737	1.350196817e-005	7.328816537e-006	3.207988739	-0.1711240113	-0.0007904345985	1.0
5	198.5739136	1.350196817e-005	7.328816537e-006	-3.351312637	0.1478020698	-0.005521904211	1.0
[LeftUpLegRoll]
4	166.7198334	3.157877654e-005	-6.571605809e-006	2.000703887e-007	1.379017613e-005	1.322874255e-006	1.0
5	166.7198334	8.70421427e-005	-6.571605809e-006	2.000703887e-007	1.379017613e-005	1.322874255e-006	1.0
[Spine]
4	66.67904663	-8.790457726	-2.70905166e-005	-6.225483894	1.612337351	-3.768203259	1.0
5	66.67904663	-8.790409088	-2.70905166e-005	-4.657721043	-0.07808583975	-5.142453194	1.0
[Spine1]
4	120.7898407	7.874086805e-007	5.73854777e-006	-11.25153828	-3.463296652	-2.206655264	1.0
5	120.7898407	-8.844624972e-005	5.73854777e-006	-9.304918289	-3.343812227	-2.399790525	1.0
[Spine2]
4	97.34932709	9.119669267e-005	3.778036216e-006	-11.15763092	-3.555480957	-2.34099865	1.0
5	97.34932709	-7.89024125e-005	3.778036216e-006	-9.171705246	-3.546800613	-2.412634134	1.0
[LeftShoulder]
4	193.5426483	-57.9708252	-41.53356171	6.674144745	4.767595291	-2.172468901	1.0
5	193.5426483	-57.9708252	-41.53356171	7.526312828	4.990782261	-3.658280611	1.0
[LeftArm]
4	156.8790283	6.763665442e-005	4.656275996e-005	6.344681263	-34.11280441	-59.44335938	1.0
5	156.8788757	0.000171417938	0.0001959001966	12.11663437	-27.86676407	-62.61744308	1.0
[LeftForeArm]
4	274.698822	0.002926153596	-0.0001156523649	-1.28429234	-1.103091955	-94.73500061	1.0
5	274.6988831	0.003086747136	0.0002258448221	-1.278962374	-0.6856181026	-86.84265137	1.0
[LeftForeArmRoll]
4	107.0116882	8.881784197e-014	2.842170943e-013	6.639550209	0	0	1.0
5	107.0116882	8.881784197e-014	2.842170943e-013	9.069875717	0	0	1.0
[LeftHand]
4	266.6986389	-0.0001295537804	0.0001168169983	8.299436569	-20.74679565	6.067968369	1.0
5	266.6985474	-0.0001819492172	0.0001165817885	11.33734417	-17.65621758	3.338148594	1.0
[LeftHandThumb1]
4	31.59936905	-14.66598034	50.44494629	-0.01288342942	-13.85647678	-3.613546848	1.0
5	31.59936905	-14.66598034	50.44494629	-0.01300454512	-13.85632992	-3.61301899	1.0
[LeftHandThumb2]
4	53.38069916	-0.0001179598767	5.352420703e-005	-0.0002536315878	0.3000540137	0.0004812710686	1.0
5	53.3806839	-8.587664342e-005	-5.441762369e-006	-0.0002536315878	0.3000540137	-0.00169659243	1.0
[LeftHandThumb3]
4	33.23012161	-0.0001122453687	-5.718161992e-005	-0.0004044212401	-1.359681937e-005	-0.0006884842296	1.0
5	33.23012543	2.7792521e-005	-0.0001091962986	-0.0004044212401	5.201812746e-005	0.001491867937	1.0
[LeftHandThumb4]
4	41.64096832	4.604625792e-005	0.0002003078407	-0.0005963343428	0.0001761054446	-7.360037853e-005	1.0
5	41.64093781	4.604625792e-005	0.000203752279	-0.0005963343428	0.0001761054446	-7.360037853e-005	1.0
[LeftHandIndex1]
4	107.828476	-7.018170834	35.98754883	-5.758398765e-005	-5.637401955e-006	-6.681351662	1.0
5	107.8284836	-7.018170834	35.98754883	-5.758398765e-005	-2.603659595e-005	-6.68194437	1.0
[LeftHandIndex2]
4	41.10884857	5.474074715e-005	-2.370510629e-005	-0.0001180831969	-0.02174365334	-6.72176218	1.0
5	41.10884857	5.474074715e-005	-2.466571641e-005	-0.0001180831969	-0.02180064283	-6.720119476	1.0
[LeftHandIndex3]
4	28.81017303	-6.260780356e-005	0.0001063220989	-0.0001884985686	-0.02151002176	-6.72217083	1.0
5	28.81019211	-6.260780356e-005	-4.67755126e-005	-0.0001884985686	-0.02167503163	-6.723303795	1.0
[LeftHandIndex4]
4	28.71872139	-4.528491991e-005	-9.969365055e-005	-0.0005197712453	7.277534314e-005	0.0001651600323	1.0
5	28.71873474	-4.528491991e-005	-0.0001126768038	-0.0005197712453	7.277534314e-005	0.0001651600323	1.0
[LeftHandMiddle1]
4	108.926857	-1.06894958	10.86118317	-0.0008985737804	-0.02296391875	-6.721471786	1.0
5	108.9267731	-1.06894958	10.86118317	-0.0008985737804	-0.02308560908	-6.72091341	1.0
[LeftHandMiddle2]
4	50.48874283	-5.077066817e-006	-5.554509244e-006	-0.0009549590177	-0.02308406867	-6.728933811	1.0
5	50.48872375	-9.409415725e-006	-5.554509244e-006	-0.0009549590177	-0.02308406867	-6.730342388	1.0
[LeftHandMiddle3]
4	33.42197418	-5.143701128e-005	7.806708891e-005	-0.001054303022	-0.02291880548	-6.72066021	1.0
5	33.42198181	-4.013438593e-005	5.085972225e-005	-0.001054303022	-0.0221624095	-6.719339848	1.0
[LeftHandMiddle4]
4	30.04674721	5.040380347e-005	1.565556158e-005	-0.0005761348875	-2.442478035e-005	0.0001658203546	1.0
5	30.04674721	-8.802810044e-005	1.565556158e-005	-0.0005761348875	-2.442478035e-005	0.0001658203546	1.0
[LeftHandRing1]
4	109.0503845	-2.691740036	-12.87386799	-0.001201222069	-0.02290125191	-6.721121788	1.0
5	109.0503845	-2.691740036	-12.87386799	-0.001201222069	-0.02290125191	-6.721085548	1.0
[LeftHandRing2]
4	46.28152847	0.4491938949	-0.04904510453	-0.001470138668	-0.02505244501	-6.722046852	1.0
5	46.28144073	0.4491938949	-0.04882132635	-0.001470138668	-0.02505244501	-6.722259521	1.0
[LeftHandRing3]
4	29.52356529	-0.4491446018	0.04897363856	-0.001541288686	-0.02494350635	-6.721788406	1.0
5	29.52356529	-0.4491446018	0.04897363856	-0.001541288686	-0.02526604012	-6.721395016	1.0
[LeftHandRing4]
4	29.06702423	-8.604244795e-005	4.329412332e-005	-0.0005856125499	-1.556767347e-005	0.0001773452823	1.0
5	29.06702423	-8.604244795e-005	2.019225394e-005	-0.0005856125499	-1.556767347e-005	0.0001773452823	1.0
[LeftHandPinky1]
4	104.5423508	-10.75370884	-37.43117142	-0.002290672623	-0.02551591769	-6.721097469	1.0
5	104.5423508	-10.75370884	-37.43119431	-0.002290672623	-0.02573108859	-6.720666885	1.0
[LeftHandPinky2]
4	32.66355515	4.504872413e-005	-1.192557738e-005	-0.002319539664	-0.02607806399	-6.738517284	1.0
5	32.66353989	4.504872413e-005	-1.192557738e-005	-0.002319539664	-0.02606764063	-6.738868713	1.0
[LeftHandPinky3]
4	25.58557129	-0.0002099084086	6.552904779e-006	-0.002331972588	-0.02688314393	-6.720538616	1.0
5	25.58556747	-0.0002099084086	6.552904779e-006	-0.002331972588	-0.026321318	-6.721356392	1.0
[LeftHandPinky4]
4	24.98874855	3.370519698e-005	2.254853462e-005	-0.0005195768899	8.110216731e-005	0.0001606175356	1.0
5	24.98874855	3.370519698e-005	2.254853462e-005	-0.0005195768899	8.110216731e-005	0.0001606175356	1.0
[LH_WP]
4	120	-50	-1.776356839e-014	0	0	0	1.0
5	120	-50	-1.776356839e-014	0	0	0	1.0
[LeftArmRoll]
4	132.8951874	-4.254606665e-006	-6.934626435e-005	-2.663570626e-007	-4.568414909e-007	4.582375823e-006	1.0
5	132.8952332	0.0001077044144	7.781719614e-005	-2.663570626e-007	-4.568414909e-007	4.582375823e-006	1.0
[RightShoulder]
4	193.54216	-57.97094345	41.53350449	11.06093407	-5.379693985	-12.23700905	1.0
5	193.5421906	-57.97074127	41.53350449	13.34982014	-3.714560509	-15.78013229	1.0
[RightArm]
4	-156.8791962	-0.0009481875459	9.682989912e-005	27.84976196	39.74464417	-38.38949966	1.0
5	-156.8792572	-0.001020917087	9.682989912e-005	22.44336319	30.46465302	-40.97018051	1.0
[RightForeArm]
4	-274.698761	-0.00381390145	2.847674841e-005	-1.504644632	-0.6131519079	-67.01728058	1.0
5	-274.697876	-0.003956248052	-0.0002553657978	-1.422324419	-1.940941572	-65.68969727	1.0
[RightHand]
4	-266.6993408	-0.003056764835	0.0008101292769	-0.7062391043	-6.069311142	15.6554451	1.0
5	-266.6991577	-0.003056126647	0.0008663804037	-1.647722483	-6.055639267	17.02771378	1.0
[RightHandThumb1]
4	-31.59879494	14.66024399	-50.44496155	-0.01147898659	-13.49991417	-2.858303547	1.0
5	-31.59876823	14.66024399	-50.44496155	-0.01168556884	-13.49964142	-2.857349396	1.0
[RightHandThumb2]
4	-53.38224411	-0.001718832646	-0.006541963201	0.0003864055034	-0.0001816402801	0.001948537189	1.0
5	-53.38224411	-0.001572258305	-0.006623329129	0.0003864055034	-0.0002932461211	-0.001927485573	1.0
[RightHandThumb3]
4	-33.22893143	-6.998400931e-005	0.00538565265	0.001325118588	-0.0004540185619	-0.002780883107	1.0
5	-33.22898483	-6.998400931e-005	0.00538565265	0.001325118588	-0.0002847093274	0.001287209569	1.0
[RightHandThumb4]
4	-41.64128876	3.524835392e-006	-0.001961095491	0.001914707827	-0.0001924577227	-0.0005631271051	1.0
5	-41.64128876	0.0001248274784	-0.001961095491	0.001914707827	-0.0001924577227	-0.0005631271051	1.0
[RightHandIndex1]
4	-107.8280334	7.018702507	-35.9875946	0.0003881388693	-0.0216423776	-6.721486092	1.0
5	-107.8280334	7.018690109	-35.9875946	0.0003881388693	-0.02154745162	-6.721230984	1.0
[RightHandIndex2]
4	-41.10917664	-0.003337909468	4.21212826e-005	0.0005543127772	-0.02149415016	-6.721866608	1.0
5	-41.10917664	-0.003337909468	4.21212826e-005	0.0005543127772	-0.02149415016	-6.722741127	1.0
[RightHandIndex3]
4	-28.810215	0.001759051112	-9.90186436e-006	0.001298090094	-0.0210750699	-6.720979691	1.0
5	-28.810215	0.001759051112	-9.90186436e-006	0.001298090094	-0.02163039334	-6.719996452	1.0
[RightHandIndex4]
4	-28.71785355	-0.003107428085	-3.30885232e-005	0.00226092455	0.0006115095457	0.0002031581535	1.0
5	-28.71785736	-0.003107428085	0.0001258700213	0.00226092455	0.0006115095457	0.0002031581535	1.0
[RightHandMiddle1]
4	-108.9268646	1.063560009	-10.86122894	0.0005381311639	-0.02275776118	-6.721608162	1.0
5	-108.9268646	1.063620448	-10.86123085	0.0005381311639	-0.02275776118	-6.721861839	1.0
[RightHandMiddle2]
4	-50.48839569	0.001322705648	-2.671446418e-005	0.0006534365821	-0.02252226323	-6.728311539	1.0
5	-50.4884491	0.001322705648	-2.671446418e-005	0.0006534365821	-0.02252226323	-6.727778435	1.0
[RightHandMiddle3]
4	-33.42206192	-0.003336391877	4.568899021e-005	0.001414699247	-0.02200144902	-6.722074509	1.0
5	-33.42205811	-0.003336391877	0.0001271368528	0.001414699247	-0.0219672583	-6.722109318	1.0
[RightHandMiddle4]
4	-30.04626083	0.000816694228	-7.911967987e-005	0.002405878855	0.00054273149	0.0001783560583	1.0
5	-30.04626083	0.000816694228	6.9230402e-005	0.002405878855	0.00054273149	0.0001783560583	1.0
[RightHandRing1]
4	-109.0496979	2.691092491	12.87384129	0.0005415810738	-0.02256014571	-6.721574783	1.0
5	-109.0496445	2.691092491	12.87384129	0.0005415810738	-0.0224862732	-6.721110344	1.0
[RightHandRing2]
4	-46.2803688	-0.4511589408	0.04896107689	0.0006064998452	-0.02426320314	-6.721423149	1.0
5	-46.2803688	-0.4511589408	0.04896107689	0.0006064998452	-0.02426320314	-6.722120285	1.0
[RightHandRing3]
4	-29.52510643	0.4504946172	-0.04901462793	0.001238655415	-0.02360320278	-6.721813202	1.0
5	-29.52510452	0.4504946172	-0.04901462793	0.001238655415	-0.02372137643	-6.722094536	1.0
[RightHandRing4]
4	-29.06611252	-0.005823877174	7.770192315e-005	0.002492689295	0.0005187573261	0.0001824576757	1.0
5	-29.06611252	-0.005823877174	7.770192315e-005	0.002492689295	0.0005187573261	0.0001824576757	1.0
[RightHandPinky1]
4	-104.5423126	10.74948311	37.43107605	0.0005379587528	-0.02515815943	-6.721679688	1.0
5	-104.5423126	10.74948311	37.43114853	0.0005379587528	-0.02515815943	-6.721518517	1.0
[RightHandPinky2]
4	-32.66365051	0.005212226883	-3.1077514e-005	0.0007540693623	-0.02490916476	-6.736982346	1.0
5	-32.66365051	0.005212226883	4.245161836e-005	0.0007540693623	-0.02490916476	-6.737541199	1.0
[RightHandPinky3]
4	-25.58576584	-0.002913864329	9.440085705e-005	0.001331240055	-0.02426693402	-6.721951008	1.0
5	-25.58576965	-0.002913864329	9.440085705e-005	0.001331240055	-0.02407187782	-6.721457958	1.0
[RightHandPinky4]
4	-24.98809814	-0.004919932224	6.394286174e-006	0.002199850045	0.0006204504753	0.0001916140027	1.0
5	-24.98809814	-0.004919932224	6.394286174e-006	0.002199850045	0.0006204504753	0.0001916140027	1.0
[RH_WP]
4	-90.81784058	44.75069046	-9.102725983	-0.1271575838	-2.744757175	2.677313566	1.0
5	-90.81784058	44.75069046	-9.102725983	-0.1271575838	-2.744757175	2.677313566	1.0
[RightForeArmRoll]
4	-107.0118866	-0.003058596514	1.442765006e-005	-0.5649912953	0	0	1.0
5	-107.0118866	-0.003058596514	1.442765006e-005	-1.318177938	0	0	1.0
[RightArmRoll]
4	-132.8955688	0.0004744274192	7.483953959e-005	-2.260197107e-006	-2.431532664e-007	7.477638519e-006	1.0
5	-132.895401	0.0004744274192	8.36606705e-005	-2.260197107e-006	-2.431532664e-007	7.477638519e-006	1.0
[Neck]
4	269.5570679	-0.0001207142341	-5.438935659e-006	3.258939028	0.5404520035	1.724703908	1.0
5	269.5575867	3.009334068e-005	-5.438935659e-006	3.078929186	0.7946746945	2.407715559	1.0
[Neck1]
4	55.64790726	8.853046165e-005	1.173807505e-005	3.401252508	-0.02533317357	1.675732017	1.0
5	55.64785004	8.853046165e-005	1.173807505e-005	3.270775318	0.2643827796	2.346871376	1.0
[Head]
4	48.2782402	4.921892469e-005	-1.697512198e-005	13.61369133	-2.102293015	7.489920139	1.0
5	48.2782402	-1.655123197e-005	-1.697512198e-005	13.05388832	-2.190869331	7.097071648	1.0
[Jaw]
4	16.62527084	-28.49801064	-6.624434263e-007	0	0	0	1.0
5	16.62527084	-28.49801064	-6.624434263e-007	0	0	0	1.0
[L_Eye]
4	62.91468811	-92.7388916	-39.95373535	0	0	0	1.0
5	62.91468811	-92.7388916	-39.95373535	0	0	0	1.0
[R_Eye_Socket]
4	62.91468811	-92.7388916	39.94999695	0	0	0	1.0
5	62.91468811	-92.7388916	39.94999695	0	0	0	1.0
[L_Eye_Socket]
4	62.91468811	-92.7388916	-39.95373535	0	0	0	1.0
5	62.91468811	-92.7388916	-39.95373535	0	0	0	1.0
[R_Eye]
4	62.91468811	-92.7388916	39.94999695	0	0	0	1.0
5	62.91468811	-92.7388916	39.94999695	0	0	0	1.0
[BK_WEP1]
4	159.8800049	132.8500061	-1.533420634e-012	0	0	0	1.0
5	159.8800049	132.8500061	-1.533420634e-012	0	0	0	1.0
[RightUpLeg]
4	-47.72180176	-9.041596413	88.5655899	-22.91020775	3.619167089	53.27329254	1.0
5	-47.72180176	-9.041586876	88.56573486	-24.1583786	-1.771325588	44.13978577	1.0
[RightLeg]
4	-428.6572876	-4.40961594e-006	0.0004942721571	-2.145166874	-5.504592896	-28.61126709	1.0
5	-428.6574097	-1.936887202e-005	0.0004307171912	-3.108653784	-6.102931023	-21.25274658	1.0
[RightFoot]
4	-444.4237976	0.007005640771	0.4626542926	-2.605490685	2.327259541	8.263109207	1.0
5	-444.4232483	0.01082917675	0.5570797324	-7.586330414	1.125589371	3.49687624	1.0
[RightToeBase]
4	-155.2787781	7.428698154e-006	-2.909067916e-005	1.761799455	0.1425564289	-0.4364975095	1.0
5	-155.2787781	7.428698154e-006	-2.909067916e-005	1.916830063	0.154973805	-0.4788984656	1.0
[RightToeEnd]
4	-87.17578125	-5.002963007e-005	-0.0004951364244	0	0	0	1.0
5	-87.17578125	-5.002963007e-005	-0.0004951364244	0	0	0	1.0
[RightLegRoll]
4	-198.5743103	-1.224648076e-005	-0.0004470431304	-2.157282829	0.1081247926	-0.00164287095	1.0
5	-198.5739899	2.555442734e-005	-0.0004470431304	-2.601183653	0.1301283985	-0.002458745847	1.0
[RightUpLegRoll]
4	-166.7198486	0.0001636421948	-3.218563143e-005	1.387047269e-005	-1.121582272e-006	7.828991329e-006	1.0
5	-166.7201538	-3.55318889e-006	-3.218563143e-005	1.387047269e-005	-1.121582272e-006	7.828991329e-006	1.0
[EndOfFile]
